<?xml version="1.0" encoding="iso-8859-1"?>
<!-- Generator: Adobe Illustrator 19.0.0, SVG Export Plug-In . SVG Version: 6.00 Build 0)  -->
<svg version="1.1" id="Layer_1" xmlns="http://www.w3.org/2000/svg" xmlns:xlink="http://www.w3.org/1999/xlink" x="0px" y="0px"
	 viewBox="0 0 511.999 511.999" style="enable-background:new 0 0 511.999 511.999;" xml:space="preserve">
<g>
	<g>
		<path d="M507.092,221.199c-2.687-6.032-8.66-9.948-15.262-9.948h-0.011l-73.131,0.081l3.6-53.562
			c0.424-6.407-2.86-12.49-8.452-15.65c-5.592-3.171-12.499-2.84-17.774,0.842l-43.304,30.183l19.895-103.544
			c1.219-6.309-1.294-12.76-6.462-16.582c-5.167-3.823-12.086-4.356-17.742-1.349l-47.481,25.073L271.271,9.921
			C268.585,3.889,262.603,0,255.999,0s-12.586,3.889-15.272,9.92l-29.696,66.822l-47.481-25.073
			c-5.667-3.002-12.575-2.469-17.742,1.349c-5.167,3.824-7.68,10.274-6.462,16.583l19.895,103.545l-43.304-30.181
			c-5.275-3.671-12.184-3.998-17.774-0.838c-5.591,3.16-8.877,9.252-8.452,15.659l3.6,53.545l-73.131-0.081h-0.011
			c-6.603,0-12.575,3.916-15.261,9.948c-2.687,6.032-1.566,13.091,2.85,17.997l48.972,54.315l-42.216,33.187
			c-5.058,3.97-7.386,10.488-5.983,16.759c1.392,6.271,6.254,11.194,12.509,12.651l105.612,24.611l-29.359,44.038
			c-3.796,5.694-3.732,13.135,0.153,18.77c3.166,4.574,8.343,7.207,13.75,7.207c1.251,0,2.345-0.141,3.596-0.43l124.187-28.692
			v73.678c0,9.227,7.481,16.708,16.708,16.708c9.227,0,16.708-7.481,16.708-16.708v-74.012l135.89,29.087
			c6.624,1.425,13.578-1.322,17.397-6.945c3.83-5.624,3.901-13.005,0.126-18.661l-30.829-46.285l95.973-22.365
			c6.254-1.458,11.122-6.38,12.514-12.65c1.404-6.271-0.922-12.786-5.98-16.757L455.27,293.52l48.972-54.227
			C508.658,234.387,509.778,227.231,507.092,221.199z M414.249,297.033c0.392,4.613,2.676,8.849,6.32,11.71l28.902,22.723
			l-85.554,19.938c-5.33,1.245-9.724,5.026-11.737,10.122c-2.023,5.096-1.415,10.856,1.632,15.419l21.261,32.128l-102.68-21.971
			v-47.837l63.673-26.982c8.496-3.611,12.533-13.418,8.933-21.913c-3.611-8.496-13.509-12.444-22.026-8.849l-50.58,21.436v-97.275
			c0-9.227-7.481-16.708-16.708-16.708c-9.227,0-16.708,7.481-16.708,16.708v97.273l-50.294-21.433
			c-9.325-3.94-20.176,1.214-22.728,11.504c-2.002,8.075,2.738,16.332,10.395,19.585l62.626,26.655v48.056l-90.693,20.963
			l19.474-29.092c3.035-4.558,3.694-10.323,1.671-15.419c-2.013-5.096-6.387-8.877-11.717-10.122l-95.192-22.185l28.907-22.723
			c3.643-2.86,5.93-7.098,6.322-11.71c0.402-4.607-1.131-9.175-4.231-12.612l-35.765-39.724l53.411-0.03h0.011
			c4.623,0,9.039-1.852,12.194-5.23c3.166-3.377,4.786-7.887,4.481-12.5l-2.458-36.675l48.472,33.794
			c5.569,3.889,12.956,4.012,18.655,0.309c5.7-3.698,8.582-10.484,7.299-17.163L178.724,97.475l32.513,17.166
			c4.09,2.149,8.888,2.518,13.271,1.011c4.373-1.512,7.919-4.775,9.801-9.001l21.691-48.808l21.691,48.808
			c1.881,4.226,5.428,7.49,9.801,9.001c4.384,1.507,9.181,1.137,13.271-1.011l32.513-17.165l-21.092,109.73
			c-1.283,6.679,1.6,13.467,7.299,17.165c5.711,3.698,13.086,3.596,18.655-0.304l48.472-33.786l-2.458,36.69
			c-0.304,4.613,1.317,9.091,4.481,12.469c3.154,3.377,7.571,5.23,12.194,5.23h0.011l53.41,0.03l-35.766,39.692
			C415.38,287.827,413.846,292.426,414.249,297.033z"/>
	</g>
</g>
<g>
</g>
<g>
</g>
<g>
</g>
<g>
</g>
<g>
</g>
<g>
</g>
<g>
</g>
<g>
</g>
<g>
</g>
<g>
</g>
<g>
</g>
<g>
</g>
<g>
</g>
<g>
</g>
<g>
</g>
</svg>
