<?xml version="1.0" encoding="UTF-8" standalone="no"?>
<svg
   xmlns:dc="http://purl.org/dc/elements/1.1/"
   xmlns:cc="http://creativecommons.org/ns#"
   xmlns:rdf="http://www.w3.org/1999/02/22-rdf-syntax-ns#"
   xmlns:svg="http://www.w3.org/2000/svg"
   xmlns="http://www.w3.org/2000/svg"
   viewBox="0 0 602.66669 602.66669"
   height="602.66669"
   width="602.66669"
   xml:space="preserve"
   id="svg2"
   version="1.1"><metadata
     id="metadata8"><rdf:RDF><cc:Work
         rdf:about=""><dc:format>image/svg+xml</dc:format><dc:type
           rdf:resource="http://purl.org/dc/dcmitype/StillImage" /></cc:Work></rdf:RDF></metadata><defs
     id="defs6" /><g
     transform="matrix(1.3333333,0,0,-1.3333333,0,602.66667)"
     id="g10"><g
       transform="scale(0.1)"
       id="g12"><path
         id="path14"
         style="fill:none;stroke:#333333;stroke-width:12.25590038;stroke-linecap:round;stroke-linejoin:round;stroke-miterlimit:10;stroke-dasharray:none;stroke-opacity:1"
         d="m 2436.04,3869.6 c 0,6.77 -5.49,12.26 -12.25,12.26 -6.77,0 -12.26,-5.49 -12.26,-12.26 0,-6.76 5.49,-12.26 12.26,-12.26 6.76,0 12.25,5.5 12.25,12.26 h -12.25 l -37.83,-226.66 -37.82,-226.67 -37.82,-226.66 -37.83,-226.66 -37.82,-226.67 -37.83,-226.66 -268.56,3.78 -224.4,-121.88 -128.83,-205.02 -226.67,37.82 -226.66,37.82 -91.86,217.77 -195.208,133.24 -236.261,6.2 -201.93,-122.81 -103.164,-212.65 28.527,-234.61 151.114,-181.73 225.476,-70.85 227.891,62.64 157.585,176.14 226.67,-37.82 226.66,-37.83 64.22,-200.27 145.57,-151.79 -74.62,-217.35 -74.61,-217.35 L 1523.16,955.73 1448.55,738.383 1223.99,654.918 1106.31,446.246 1151.07,210.898 1337.14,60 l 239.52,4.7969 179.87,158.2301 35.3,236.95 -125.94,203.789 74.62,217.347 74.61,217.347 74.62,217.35 74.61,217.34 139.65,-4.02 138.43,38.07 124.5,79.01 98.45,114.93 62.08,142.25 18.22,158.05 229.01,-18.98 229.01,-18.98 229.01,-18.97 229.02,-18.98 136.04,-197.19 231.17,-62.86 217.15,101.17 100.61,217.42 -63.45,231.01 -197.54,135.53 -238.37,-23.95 -166.64,-172.11 -229.01,18.97 -229.01,18.98 -229.02,18.98 -229.01,18.97 -141.14,181.35 37.82,226.66 37.83,226.66 37.82,226.67 37.82,226.66 37.83,226.66 37.82,226.67 186.42,160.17 -11.2,245.52 -200.22,142.53 -235.66,-69.8" /><path
         id="path16"
         style="fill:none;stroke:#333333;stroke-width:10.72389984;stroke-linecap:round;stroke-linejoin:round;stroke-miterlimit:10;stroke-dasharray:137.879, 46.1128;stroke-dashoffset:137.8789978;stroke-opacity:1"
         d="m 2650.45,3831.78 -226.66,37.82 m 188.84,-264.49 -226.67,37.83 m 188.84,-264.49 -226.66,37.82 m 188.84,-264.48 -226.66,37.82 m 188.84,-264.49 -226.67,37.83 m 188.84,-264.49 -226.66,37.82 m 188.84,-264.48 -226.67,37.82 m -659.62,-549.79 37.83,226.67 m -264.49,-188.84 37.82,226.66 m -264.49,-188.84 37.83,226.66 m 842.63,-728.99 -217.34,74.62 m 142.73,-291.96 -217.35,74.61 m 142.73,-291.96 -217.34,74.61 m 142.73,-291.957 -217.35,74.617 m 142.73,-291.964 -217.34,74.617 m 1116.1,1552.067 -18.97,-229.01 m 247.98,210.04 -18.97,-229.02 m 247.99,210.04 -18.98,-229.02 m 247.99,210.04 -18.98,-229.01 m 247.99,210.04 -18.97,-229.02" /><g
         transform="scale(10)"
         id="g18"><text
           id="text170"
           style="font-variant:normal;font-weight:normal;font-size:21.44779968px;font-family:Helvetica;-inkscape-font-specification:Helvetica;writing-mode:lr-tb;fill:#000000;fill-opacity:1;fill-rule:nonzero;stroke:none"
           transform="matrix(1,0,0,-1,234.636,379.811)"><tspan
             id="tspan20"
             y="0"
             x="0">U</tspan><tspan
             id="tspan22"
             y="22.666401"
             x="-4.3828101">G</tspan><tspan
             id="tspan24"
             y="45.332802"
             x="-8.1652298">G</tspan><tspan
             id="tspan26"
             y="67.999199"
             x="-11.94765">G</tspan><tspan
             id="tspan28"
             y="90.665604"
             x="-15.73007">G</tspan><tspan
             id="tspan30"
             y="113.332"
             x="-18.911711">U</tspan><tspan
             id="tspan32"
             y="135.9984"
             x="-22.10429">A</tspan><tspan
             id="tspan34"
             y="135.61987"
             x="-49.550388">U</tspan><tspan
             id="tspan36"
             y="147.80818"
             x="-71.990593">C</tspan><tspan
             id="tspan38"
             y="168.31049"
             x="-85.474586">G</tspan><tspan
             id="tspan40"
             y="164.52806"
             x="-107.54019">C</tspan><tspan
             id="tspan42"
             y="160.74603"
             x="-130.20659">C</tspan><tspan
             id="tspan44"
             y="138.96944"
             x="-138.80267">A</tspan><tspan
             id="tspan46"
             y="125.64523"
             x="-158.32338">A</tspan><tspan
             id="tspan48"
             y="125.02492"
             x="-183.14018">G</tspan><tspan
             id="tspan50"
             y="137.30652"
             x="-202.73238">C</tspan><tspan
             id="tspan52"
             y="158.57062"
             x="-213.64919">G</tspan><tspan
             id="tspan54"
             y="182.03232"
             x="-210.79645">G</tspan><tspan
             id="tspan56"
             y="200.20502"
             x="-195.08475">U</tspan><tspan
             id="tspan58"
             y="207.28979"
             x="-171.94765">A</tspan><tspan
             id="tspan60"
             y="201.02612"
             x="-149.15816">A</tspan><tspan
             id="tspan62"
             y="183.41241"
             x="-134.58945">G</tspan><tspan
             id="tspan64"
             y="187.19444"
             x="-111.92305">G</tspan><tspan
             id="tspan66"
             y="190.97687"
             x="-88.65625">C</tspan><tspan
             id="tspan68"
             y="211.00388"
             x="-81.64492">A</tspan><tspan
             id="tspan70"
             y="226.18317"
             x="-67.677719">C</tspan><tspan
             id="tspan72"
             y="247.91797"
             x="-75.139442">C</tspan><tspan
             id="tspan74"
             y="269.65277"
             x="-83.201553">G</tspan><tspan
             id="tspan76"
             y="291.38718"
             x="-90.66288">G</tspan><tspan
             id="tspan78"
             y="313.12198"
             x="-96.933968">A</tspan><tspan
             id="tspan80"
             y="321.46844"
             x="-119.97927">U</tspan><tspan
             id="tspan82"
             y="342.33566"
             x="-131.74767">U</tspan><tspan
             id="tspan84"
             y="365.87045"
             x="-127.2715">C</tspan><tspan
             id="tspan86"
             y="380.96024"
             x="-108.6649">U</tspan><tspan
             id="tspan88"
             y="380.48056"
             x="-85.313698">G</tspan><tspan
             id="tspan90"
             y="364.65756"
             x="-66.135597">A</tspan><tspan
             id="tspan92"
             y="340.96265"
             x="-63.19537">U</tspan><tspan
             id="tspan94"
             y="320.58377"
             x="-75.789467">U</tspan><tspan
             id="tspan96"
             y="298.84897"
             x="-68.327751">C</tspan><tspan
             id="tspan98"
             y="277.11417"
             x="-60.866421">C</tspan><tspan
             id="tspan100"
             y="255.37936"
             x="-54.005482">G</tspan><tspan
             id="tspan102"
             y="233.64496"
             x="-46.543758">G</tspan><tspan
             id="tspan104"
             y="234.04732"
             x="-31.97896">C</tspan><tspan
             id="tspan106"
             y="230.23988"
             x="-17.545361">A</tspan><tspan
             id="tspan108"
             y="222.33871"
             x="-5.6855602">U</tspan><tspan
             id="tspan110"
             y="210.84612"
             x="4.15975">U</tspan><tspan
             id="tspan112"
             y="196.62073"
             x="10.36756">C</tspan><tspan
             id="tspan114"
             y="180.81642"
             x="12.18904">C</tspan><tspan
             id="tspan116"
             y="182.71408"
             x="34.489841">G</tspan><tspan
             id="tspan118"
             y="184.61174"
             x="58.581638">A</tspan><tspan
             id="tspan120"
             y="186.5094"
             x="80.292542">G</tspan><tspan
             id="tspan122"
             y="188.40706"
             x="103.19374">G</tspan><tspan
             id="tspan124"
             y="208.12616"
             x="117.39804">U</tspan><tspan
             id="tspan126"
             y="214.41171"
             x="140.51524">U</tspan><tspan
             id="tspan128"
             y="204.2953"
             x="162.23083">C</tspan><tspan
             id="tspan130"
             y="182.55351"
             x="171.69099">G</tspan><tspan
             id="tspan132"
             y="159.45232"
             x="166.5367">A</tspan><tspan
             id="tspan134"
             y="145.89961"
             x="146.782">A</tspan><tspan
             id="tspan136"
             y="148.29414"
             x="122.3558">U</tspan><tspan
             id="tspan138"
             y="165.50545"
             x="105.6917">C</tspan><tspan
             id="tspan140"
             y="163.60777"
             x="82.790497">C</tspan><tspan
             id="tspan142"
             y="161.71011"
             x="59.889301">U</tspan><tspan
             id="tspan144"
             y="159.81245"
             x="36.987701">C</tspan><tspan
             id="tspan146"
             y="157.91479"
             x="13.4861">G</tspan><tspan
             id="tspan148"
             y="139.78081"
             x="-0.028000001">U</tspan><tspan
             id="tspan150"
             y="117.1144"
             x="4.3442702">A</tspan><tspan
             id="tspan152"
             y="94.447998"
             x="7.53685">C</tspan><tspan
             id="tspan154"
             y="71.781601"
             x="11.31927">C</tspan><tspan
             id="tspan156"
             y="49.115196"
             x="15.1013">C</tspan><tspan
             id="tspan158"
             y="26.448797"
             x="18.88372">C</tspan><tspan
             id="tspan160"
             y="3.782398"
             x="23.255989">A</tspan><tspan
             id="tspan162"
             y="-12.234402"
             x="40.707588">G</tspan><tspan
             id="tspan164"
             y="-36.786701"
             x="40.18845">C</tspan><tspan
             id="tspan166"
             y="-51.039803"
             x="20.165749">C</tspan><tspan
             id="tspan168"
             y="-44.060112"
             x="-2.810451">A</tspan></text>
</g></g></g></svg>